<?xml version="1.0" encoding="UTF-8"?>
<svg width="117px" height="69px" viewBox="0 0 117 69" version="1.1" xmlns="http://www.w3.org/2000/svg" xmlns:xlink="http://www.w3.org/1999/xlink">
    <title>Diffbot-Design-System_diffy-light-background</title>
    <g id="Visual-Assets" stroke="none" stroke-width="1" fill="none" fill-rule="evenodd">
        <g id="Logo-Assets" transform="translate(-703, -1442)" fill="#19305A">
            <g id="diffy-light-background" transform="translate(703, 1442)">
                <path d="M13.7070857,34.4816975 C13.7070857,15.4382144 29.34517,0 48.6151319,0 L67.4448695,0 C86.7348422,0 102.362914,15.4382144 102.362914,34.4816975 C102.362914,53.5251806 86.7148314,68.963395 67.4448695,68.963395 L48.6151319,68.963395 C29.3351646,68.963395 13.7070857,53.5251806 13.7070857,34.4816975 L13.7070857,34.4816975 Z M26.5937476,20.9266841 C26.6081295,19.3388229 26.9332762,17.7693806 27.5506002,16.3080715 C28.1679243,14.8467625 29.0653208,13.5222382 30.1914956,12.4102112 C31.3176705,11.2981841 32.650542,10.4204585 34.1139182,9.82720644 C35.5772945,9.23395435 37.1424844,8.93680847 38.7200172,8.95275373 L77.3499839,8.95275373 C78.9266795,8.9381395 80.4907974,9.23626893 81.953018,9.83011839 C83.4152387,10.4239678 84.7469237,11.3019058 85.8720362,12.4138012 C86.9971486,13.5256965 87.8936498,14.8497713 88.5103477,16.3104188 C89.1270456,17.7710662 89.4518612,19.3396784 89.466248,20.9266841 L89.466248,48.036709 C89.4518612,49.6237147 89.1270456,51.1923269 88.5103477,52.6529743 C87.8936498,54.1136217 86.9971486,55.4376965 85.8720362,56.5495919 C84.7469237,57.6614873 83.4152387,58.5394233 81.953018,59.1332728 C80.4907974,59.7271222 78.9266795,60.0252526 77.3499839,60.0106384 L38.7200172,60.0106384 C37.1424844,60.0265836 35.5772945,59.7294368 34.1139182,59.1361847 C32.650542,58.5429326 31.3176705,57.665207 30.1914956,56.55318 C29.0653208,55.4411529 28.1679243,54.1166306 27.5506002,52.6553215 C26.9332762,51.1940125 26.6081295,49.6245702 26.5937476,48.036709 L26.5937476,20.9266841 Z M80.6416864,24.1694129 C80.2062892,22.7210753 79.3194382,21.4521922 78.1122416,20.5503624 C76.905045,19.6485325 75.4415833,19.1616246 73.9382241,19.1616246 C72.4348649,19.1616246 70.9714032,19.6485325 69.7642066,20.5503624 C68.55701,21.4521922 67.6701513,22.7210753 67.2347542,24.1694129 L67.2347542,24.1694129 C67.1322407,24.4147405 67.0811547,24.6787287 67.0846827,24.9448487 C67.0223246,25.479026 67.1733435,26.0162586 67.5045164,26.438361 C67.8356893,26.8604635 68.3198876,27.1328582 68.850595,27.195624 C69.3813023,27.2583898 69.9150413,27.1063854 70.3344019,26.7730472 C70.7537625,26.439709 71.0243934,25.952343 71.0867516,25.4181657 C71.2741163,24.7985687 71.6543339,24.2559768 72.1713424,23.8704097 C72.6883509,23.4848426 73.3147758,23.2767116 73.9582311,23.2767116 C74.6016863,23.2767116 75.2281113,23.4848426 75.7451198,23.8704097 C76.2621283,24.2559768 76.6423535,24.7985687 76.8297183,25.4181657 L76.8297183,25.4181657 C76.8880961,25.952343 77.1549039,26.4412998 77.57145,26.7774708 C77.7777027,26.9439259 78.0145126,27.0678616 78.2683511,27.1422005 C78.5221895,27.2165393 78.7880881,27.239826 79.0508677,27.2107312 C79.3136473,27.1816365 79.5681591,27.1007301 79.799874,26.9726311 C80.0315889,26.8445322 80.2359693,26.6717492 80.4013431,26.4641479 C80.5667168,26.2565467 80.6898418,26.0181922 80.7636977,25.7626942 C80.8375537,25.5071961 80.8606929,25.239557 80.8317871,24.9750593 C80.8200107,24.6967702 80.755484,24.4233136 80.6416864,24.1694129 L80.6416864,24.1694129 Z M49.6256526,24.1694129 C49.1902554,22.7210753 48.3034006,21.4521922 47.096204,20.5503624 C45.8890074,19.6485325 44.4255495,19.1616246 42.9221903,19.1616246 C41.418831,19.1616246 39.9553694,19.6485325 38.7481728,20.5503624 C37.5409762,21.4521922 36.6541213,22.7210753 36.2187241,24.1694129 L36.2187241,24.1694129 C36.1162107,24.4147405 36.0651171,24.6787287 36.068645,24.9448487 C36.0062869,25.479026 36.1573059,26.0162586 36.4884788,26.438361 C36.8196517,26.8604635 37.30385,27.1328582 37.8345573,27.195624 C38.3652647,27.2583898 38.8990075,27.1063854 39.318368,26.7730472 C39.7377286,26.439709 40.0083558,25.952343 40.0707139,25.4181657 C40.2580786,24.7985687 40.6383039,24.2559768 41.1553124,23.8704097 C41.6723209,23.4848426 42.298742,23.2767116 42.9421973,23.2767116 C43.5856525,23.2767116 44.2120775,23.4848426 44.729086,23.8704097 C45.2460945,24.2559768 45.6263197,24.7985687 45.8136844,25.4181657 L45.8136844,25.4181657 C45.8720623,25.9523429 46.1388701,26.4412998 46.5554161,26.7774708 C46.9719622,27.1136419 47.5041227,27.2694907 48.0348301,27.2107312 C48.5655374,27.1519717 49.051318,26.8834175 49.3853054,26.4641479 C49.7192928,26.0448784 49.8741311,25.5092365 49.8157533,24.9750593 C49.816184,24.6941907 49.7582457,24.4163368 49.6456634,24.1593421 L49.6256526,24.1694129 Z M58.6303076,52.0347301 C50.2259633,52.0347301 43.2323494,48.4596728 41.701558,40.4434842 L75.5590571,40.4434842 C74.038271,48.4999552 67.0346547,52.0750134 58.6403149,52.0750134 L58.6303076,52.0347301 Z M100.051722,54.5322395 C100.337983,54.4612746 100.613796,54.3529369 100.872146,54.209981 L112.508158,48.1676277 C113.544767,47.5649748 114.417087,46.7134581 115.047305,45.6890268 C115.677524,44.6645955 116.04605,43.4990954 116.120026,42.2964727 L116.120026,26.1835307 C116.056556,24.9768201 115.69364,23.8053633 115.064434,22.7762189 C114.435229,21.7470746 113.559801,20.8930633 112.518166,20.2922359 L100.912167,14.3908713 C100.526651,14.2186311 100.112818,14.119618 99.6915352,14.0988242 C103.627028,20.0825836 105.75549,27.0860229 105.819413,34.2618528 C105.883336,41.4376827 103.879982,48.4784123 100.051722,54.5322395 L100.051722,54.5322395 Z M16.0082755,54.5322395 C15.7223277,54.465022 15.4464634,54.3600485 15.1878517,54.2200499 L3.55183608,48.1776966 C2.52446883,47.5675437 1.66270552,46.7114562 1.04308335,45.6854695 C0.42346118,44.6594828 0.0651592018,43.4953537 0,42.2964727 L0,26.1835307 C0.0616633256,24.9763746 0.423837659,23.8041921 1.05322568,22.7747495 C1.68261369,21.7453069 2.55901721,20.8916403 3.6018619,20.2922359 L15.2078616,14.3908713 C15.5964129,14.2171963 16.0137913,14.1181467 16.4384982,14.0988242 C12.492174,20.0737373 10.3512381,27.0719938 10.274882,34.2463557 C10.1985258,41.4207176 12.1900234,48.4635318 16.0082755,54.5221668 L16.0082755,54.5322395 Z"></path>
            </g>
        </g>
    </g>
</svg>